# AST/ASF file generated using VICON BodyLanguage
# -----------------------------------------------
:version 1.10
:name VICON
:units
  mass 1.0
  length 0.45
  angle deg
:documentation
   .ast/.asf automatically generated from VICON data using
   VICON BodyBuilder and BodyLanguage model FoxedUp or BRILLIANT.MOD
:root
   order TX TY TZ RX RY RZ
   axis XYZ
   position 0 0 0  
   orientation 0 0 0 
:bonedata
  begin
     id 1 
     name lhipjoint
     direction 0.677091 -0.635792 0.370561 
     length 2.74323 
     axis 0 0 0  XYZ
  end
  begin
     id 2 
     name lfemur
     direction 0.34202 -0.939693 0  
     length 7.44995  
     axis 0 0 20  XYZ
    dof rx ry rz
    limits (-160.0 20.0)
           (-70.0 70.0)
           (-60.0 70.0)
  end
  begin
     id 3 
     name ltibia
     direction 0.34202 -0.939693 0   
     length 7.34467   
     axis 0 0 20   XYZ
    dof rx
    limits (-10.0 170.0)
  end
  begin
     id 4 
     name lfoot
     direction 0.101953 -0.280114 0.954537   
     length 1.72105   
     axis -90 7.62852e-016 20   XYZ
    dof rx rz
    limits (-45.0 90.0)
           (-70.0 20.0)
  end
  begin
     id 5 
     name ltoes
     direction 1.53537e-011 -4.21915e-011 1   
     length 0.865872   
     axis -90 7.62852e-016 20   XYZ
    dof rx
    limits (-90.0 20.0)
  end
  begin
     id 6 
     name rhipjoint
     direction -0.695735 -0.620586 0.361699   
     length 2.81045  
     axis 0 0 0  XYZ 
  end
  begin
     id 7 
     name rfemur
     direction -0.34202 -0.939693 0   
     length 7.29387   
     axis 0 0 -20   XYZ
    dof rx ry rz
    limits (-160.0 20.0)
           (-70.0 70.0)
           (-70.0 60.0)
  end
  begin
     id 8 
     name rtibia
     direction -0.34202 -0.939693 0   
     length 7.44935   
     axis 0 0 -20   XYZ
    dof rx
    limits (-10.0 170.0)
 end
 begin
     id 9 
     name rfoot
     direction -0.104163 -0.286184 0.952496   
     length 1.77731  
     axis -90 -7.62852e-016 -20   XYZ
    dof rx rz
    limits (-45.0 90.0)
           (-20.0 70.0)
  end
  begin
     id 10 
     name rtoes
     direction -1.5355e-011 -4.21888e-011 1   
     length 0.892424   
     axis -90 -7.62852e-016 -20   XYZ
    dof rx
    limits (-90.0 20.0)
  end
  begin
     id 11 
     name lowerback
     direction 0.0100202 0.997226 -0.0737589   
     length 2.16892   
     axis 0 0 0   XYZ
    dof rx ry rz
    limits (-20.0 45.0)
           (-30.0 30.0)
           (-30.0 30.0)
  end
  begin
     id 12 
     name upperback
     direction 0.00432398 0.999988 -0.00215019   
     length 2.17326   
     axis 0 0 0   XYZ
    dof rx ry rz
    limits (-20.0 45.0)
           (-30.0 30.0)
           (-30.0 30.0)
  end
  begin
     id 13 
     name thorax
     direction -0.00195047 0.999485 0.0320434   
     length 2.18139   
     axis 0 0 0   XYZ
    dof rx ry rz
    limits (-20.0 45.0)
           (-30.0 30.0)
           (-30.0 30.0)
  end
  begin
     id 14 
     name lowerneck
     direction 0.00782762 0.986241 0.165128   
     length 1.88415   
     axis 0 0 0   XYZ
    dof rx ry rz
    limits (-20.0 45.0)
           (-30.0 30.0)
           (-30.0 30.0)
  end
  begin
     id 15 
     name upperneck
     direction 0.00988667 0.981098 -0.193258   
     length 1.9242   
     axis 0 0 0   XYZ
    dof rx ry rz
    limits (-20.0 45.0)
           (-30.0 30.0)
           (-30.0 30.0)
  end
  begin
     id 16
     name head
     direction 0.00252199 0.996513 -0.0833958  
     length 1.93887  
     axis 0 0 0   XYZ
    dof rx ry rz
    limits (-20.0 45.0)
           (-30.0 30.0)
           (-30.0 30.0)
  end
  begin
     id 17 
     name lclavicle
     direction 0.929492 0.368193 -0.0218667  
     length 3.5955  
     axis 0 0 0   XYZ
    dof ry rz
    limits (-20.0 10.0)
           (0.0 20.0)
  end
  begin
     id 18 
     name lhumerus
     direction 1 -4.48972e-011 1.41911e-027   
     length 5.2795   
     axis 180 -30 -90   XYZ
    dof rx ry rz
    limits (-60.0 90.0)
           (-90.0 90.0)
           (-90.0 90.0)
  end
  begin
     id 19
     name lradius
     direction 1 -4.48963e-011 7.05772e-027   
     length 3.53504   
     axis 180 -30 -90   XYZ
    dof rx
    limits (-10.0 170.0)
  end
  begin
     id 20
     name lwrist
     direction 1 -4.48957e-011 9.54866e-027   
     length 1.76752   
     axis -7.69462e-015 90 90   XYZ
    dof ry
    limits (-180.0 0.0)
 end
  begin
     id 21 
     name lhand
     direction 1 -4.48979e-011 1.90973e-026   
     length 0.667948   
     axis -1.21857e-014 90 90   XYZ
    dof rx rz
    limits (-90.0 90.0)
           (-45.0 45.0)
  end
  begin
     id 22 
     name lfingers
     direction 1 -4.48987e-011 3.81946e-026   
     length 0.538517   
     axis -2.43714e-014 90 90   XYZ
    dof rx
    limits (0.0 90.0)
  end
  begin
     id 23
     name lthumb
     direction 0.707107 -6.34962e-011 0.707107   
     length 0.773206   
     axis -90 45 2.85299e-015   XYZ
    dof rx rz
    limits (-45.0 45.0)
           (-45.0 45.0)
  end
  begin
     id 24 
     name rclavicle
     direction -0.898763 0.414256 -0.143584   
     length 3.5176  
     axis 0 0 0   XYZ 
    dof ry rz
    limits (-10.0 20.0)
           (-20.0 0.0)
  end
  begin
     id 25 
     name rhumerus
     direction -1 -4.48971e-011 1.129e-027  
     length 5.25035   
     axis 180 30 90   XYZ
    dof rx ry rz
    limits (-90.0 60.0)
           (-90.0 90.0)
           (-90.0 90.0)
  end
  begin
     id 26 
     name rradius
     direction -1 -4.48955e-011 6.34664e-027   
     length 3.58884   
     axis 180 30 90   XYZ
    dof rx
    limits (-10.0 170.0)
  end
  begin
     id 27 
     name rwrist
     direction -1 -4.48966e-011 9.54866e-027   
     length 1.79442   
     axis -7.69462e-015 -90 -90   XYZ
    dof ry
    limits (-180.0 0.0)
  end
  begin
     id 28
     name rhand
     direction -1 -4.48973e-011 1.90973e-026   
     length 0.779235   
     axis -1.21857e-014 -90 -90   XYZ
    dof rx rz
    limits (-90.0 90.0)
           (-45.0 45.0)
  end
  begin
     id 29
     name rfingers
     direction -1 -4.48984e-011 3.81946e-026   
     length 0.62824   
     axis -2.43714e-014 -90 -90   XYZ
    dof rx
    limits (0.0 90.0)
  end
  begin
     id 30
     name rthumb
     direction -0.707107 -6.34968e-011 0.707107   
     length 0.90203   
     axis -90 -45 -2.85299e-015   XYZ
    dof rx rz
    limits (-45.0 45.0)
           (-45.0 45.0)
  end
:hierarchy
  begin
    root lhipjoint rhipjoint lowerback
    lhipjoint lfemur
    lfemur ltibia
    ltibia lfoot
    lfoot ltoes
    rhipjoint rfemur
    rfemur rtibia
    rtibia rfoot
    rfoot rtoes
    lowerback upperback
    upperback thorax
    thorax lowerneck lclavicle rclavicle
    lowerneck upperneck
    upperneck head
    lclavicle lhumerus
    lhumerus lradius
    lradius lwrist
    lwrist lhand lthumb
    lhand lfingers
    rclavicle rhumerus
    rhumerus rradius
    rradius rwrist
    rwrist rhand rthumb
    rhand rfingers
  end

#!OML:ASF I:\Random Stuff\random\construction\7_22_03\Session 2\subj1.ASF
:FULLY-SPECIFIED
:DEGREES
181
root 4.84486 17.799 -10.0583 7.45928 -6.84727 -0.622869
lowerback 6.83141 -0.609008 -0.000581689
upperback -0.377333 -0.701832 2.63612
thorax -4.19196 -0.320082 2.80635
lowerneck -15.8937 -8.48139 -6.33346
upperneck 43.0385 -17.8074 12.0604
head 23.3041 -6.44869 3.34507
rclavicle 1.74931e-014 -1.11319e-014
rhumerus -46.4581 9.41907 -75.484
rradius 84.1259
rwrist 27.8449
rhand -33.8156 34.9515
rfingers 7.12502
rthumb -7.00153 5.08733
lclavicle 1.74931e-014 -1.11319e-014
lhumerus -34.8196 -13.0325 92.6388
lradius 50.666
lwrist 30.3401
lhand -19.4464 57.7247
lfingers 7.12502
lthumb -173.126 267.593
rfemur -11.2781 -0.361627 22.8651
rtibia 2.06736e-014
rfoot 4.36403 -12.3839
rtoes -9.51793
lfemur -12.2197 3.34339 -12.4259
ltibia 34.1965
lfoot -7.91741 7.47644
ltoes -16.2565
182
root 4.78942 17.8048 -10.0075 7.53631 -7.22787 -0.4995
lowerback 6.65177 -0.576686 0.198798
upperback -0.414703 -0.645255 2.62504
thorax -4.13457 -0.296763 2.67388
lowerneck -15.9778 -8.35933 -6.2069
upperneck 42.9713 -17.6098 12.0164
head 23.1851 -6.35496 3.33903
rclavicle -8.24956e-015 1.74931e-014
rhumerus -46.6947 9.87132 -75.8825
rradius 84.0409
rwrist 27.8976
rhand -34.0054 35.7536
rfingers 7.12502
rthumb -7.18478 5.89556
lclavicle -8.24956e-015 1.74931e-014
lhumerus -34.8041 -13.1042 92.8211
lradius 50.5508
lwrist 29.8617
lhand -19.313 57.5539
lfingers 7.12502
lthumb -172.997 267.418
rfemur -11.2044 -0.0409752 22.9112
rtibia 1.90833e-014
rfoot 4.3143 -12.4547
rtoes -10.102
lfemur -12.7973 3.68552 -12.3845
ltibia 35.1437
lfoot -7.73947 6.63856
ltoes -17.1758
183
root 4.74257 17.8039 -9.95139 7.21576 -7.76546 -0.342095
lowerback 6.84075 -0.517998 0.339751
upperback -0.330475 -0.555114 2.60605
thorax -4.15902 -0.255622 2.56742
lowerneck -16.0741 -8.19923 -6.04599
upperneck 42.9379 -17.3434 11.9192
head 23.0653 -6.23467 3.3168
rclavicle 5.06901e-015 -5.56597e-015
rhumerus -46.8574 10.3915 -76.257
rradius 84.0269
rwrist 27.8823
rhand -34.2544 36.419
rfingers 7.12502
rthumb -7.42515 6.56933
lclavicle 5.06901e-015 -5.56597e-015
lhumerus -34.8226 -13.0212 93.0051
lradius 50.4548
lwrist 29.6281
lhand -19.335 57.6241
lfingers 7.12502
lthumb -173.018 267.489
rfemur -10.7041 0.396943 22.8636
rtibia -1.35174e-014
rfoot 4.26546 -12.6187
rtoes -10.0158
lfemur -12.8216 3.99071 -12.4314
ltibia 35.7743
lfoot -7.70926 5.46926
ltoes -18.2802
184
root 4.69629 17.8062 -9.90069 7.01562 -8.29876 -0.213629
lowerback 6.96288 -0.460429 0.428702
upperback -0.272883 -0.470245 2.60681
thorax -4.17221 -0.215693 2.5104
lowerneck -16.157 -8.02598 -5.92099
upperneck 42.8404 -17.0713 11.9123
head 22.9168 -6.11144 3.34863
rclavicle -6.16232e-015 -2.14687e-014
rhumerus -46.9873 10.9076 -76.6046
rradius 84.1104
rwrist 27.7547
rhand -34.1179 37.0886
rfingers 7.12502
rthumb -7.29341 7.23428
lclavicle -6.16232e-015 -2.14687e-014
lhumerus -34.8338 -12.8845 93.1105
lradius 50.406
lwrist 29.5667
lhand -19.1277 57.6474
lfingers 7.12502
lthumb -172.818 267.506
rfemur -10.3093 0.834954 22.8328
rtibia -1.31198e-014
rfoot 3.95976 -12.8007
rtoes -8.55744
lfemur -12.9544 4.24624 -12.4978
ltibia 36.106
lfoot -7.62558 4.09487
ltoes -20.1573
185
root 4.65603 17.8053 -9.853 6.88891 -8.8619 -0.0970835
lowerback 7.02784 -0.381914 0.55261
upperback -0.218406 -0.356832 2.57562
thorax -4.15761 -0.162791 2.39644
lowerneck -16.2441 -7.90701 -5.75926
upperneck 42.7728 -16.9196 11.9095
head 22.8225 -6.02507 3.34612
rclavicle 3.35946e-014 2.54444e-014
rhumerus -47.1223 11.3505 -76.9781
rradius 84.2442
rwrist 27.6062
rhand -33.9129 37.8762
rfingers 7.12502
rthumb -7.09547 8.01514
lclavicle 3.35946e-014 2.54444e-014
lhumerus -34.7951 -12.7439 93.1465
lradius 50.3219
lwrist 29.5756
lhand -18.7053 57.5638
lfingers 7.12502
lthumb -172.41 267.408
rfemur -10.0103 1.30403 22.796
rtibia -2.66371e-014
rfoot 3.64448 -12.8606
rtoes -7.62941
lfemur -13.1224 4.40039 -12.6079
ltibia 36.1385
lfoot -7.7059 2.94325
ltoes -21.5988
186
root 4.62141 17.8011 -9.80882 6.80775 -9.40682 0.0758082
lowerback 7.06808 -0.34708 0.618985
upperback -0.170933 -0.307001 2.53684
thorax -4.13329 -0.140233 2.31339
lowerneck -16.3341 -7.77801 -5.62232
upperneck 42.73 -16.7624 11.9256
head 22.7624 -5.93957 3.3624
rclavicle -5.26779e-015 3.89618e-014
rhumerus -47.2151 11.8868 -77.3788
rradius 84.37
rwrist 27.5729
rhand -33.9522 38.5971
rfingers 7.12502
rthumb -7.13347 8.73733
lclavicle -5.26779e-015 3.89618e-014
lhumerus -34.726 -12.4181 93.1828
lradius 50.1467
lwrist 29.6693
lhand -18.5436 57.5836
lfingers 7.12502
lthumb -172.254 267.422
rfemur -9.82955 1.7522 22.7003
rtibia -8.34896e-015
rfoot 3.57142 -12.8239
rtoes -8.21662
lfemur -13.3656 4.46341 -12.8105
ltibia 35.9673
lfoot -7.91352 2.03645
ltoes -22.1413
187
root 4.59264 17.7959 -9.75023 6.43996 -10.1373 0.284037
lowerback 7.22218 -0.279875 0.657364
upperback 0.0186988 -0.218674 2.47234
thorax -4.02637 -0.0990777 2.21505
lowerneck -16.3948 -7.6241 -5.55237
upperneck 42.5953 -16.5724 12.0577
head 22.6468 -5.8452 3.45751
rclavicle 1.27222e-014 -2.78299e-014
rhumerus -47.2542 12.457 -77.7715
rradius 84.5081
rwrist 27.6813
rhand -34.0869 39.0747
rfingers 7.12502
rthumb -7.26346 9.21938
lclavicle 1.27222e-014 -2.78299e-014
lhumerus -34.69 -12.098 93.21
lradius 50.0178
lwrist 29.9288
lhand -18.5401 57.6681
lfingers 7.12502
lthumb -172.251 267.506
rfemur -9.31357 2.35148 22.5102
rtibia 3.26007e-014
rfoot 3.36499 -12.835
rtoes -7.81496
lfemur -13.19 4.49016 -13.1134
ltibia 35.6319
lfoot -8.28315 1.37213
ltoes -23.2341
188
root 4.56276 17.7913 -9.70598 6.36137 -10.6152 0.460828
lowerback 7.2501 -0.289652 0.64778
upperback 0.0803256 -0.234716 2.44528
thorax -3.97756 -0.107569 2.19369
lowerneck -16.4135 -7.44183 -5.42476
upperneck 42.4579 -16.3441 12.1673
head 22.4882 -5.73095 3.53879
rclavicle 1.0138e-014 2.14687e-014
rhumerus -47.3326 13.0183 -78.1765
rradius 84.6772
rwrist 27.8632
rhand -34.3991 39.1223
rfingers 7.12502
rthumb -7.5648 9.27758
lclavicle 1.0138e-014 2.14687e-014
lhumerus -34.791 -11.9677 93.2531
lradius 49.993
lwrist 30.4034
lhand -18.6081 57.7765
lfingers 7.12502
lthumb -172.317 267.617
rfemur -10.4972 2.81531 22.4705
rtibia 2.69967
rfoot 2.04337 -13.2793
rtoes -8.47566
lfemur -13.4372 4.30268 -13.3516
ltibia 35.1456
lfoot -8.69332 0.708235
ltoes -23.4605
189
root 4.53599 17.7832 -9.66998 6.45792 -10.946 0.584341
lowerback 7.20524 -0.359078 0.660629
upperback 0.0712107 -0.32655 2.45556
thorax -3.95878 -0.153371 2.20637
lowerneck -16.4328 -7.21637 -5.28548
upperneck 42.3359 -16.0345 12.2443
head 22.3163 -5.58739 3.62074
rclavicle 7.35503e-015 -2.3059e-014
rhumerus -47.384 13.5632 -78.5854
rradius 84.8185
rwrist 28.0153
rhand -34.7581 39.038
rfingers 7.12502
rthumb -7.91135 9.20607
lclavicle 7.35503e-015 -2.3059e-014
lhumerus -34.8899 -11.7728 93.2931
lradius 49.8965
lwrist 30.7704
lhand -18.6393 57.8796
lfingers 7.12502
lthumb -172.347 267.721
rfemur -11.8558 3.14967 22.4892
rtibia 5.27658
rfoot 1.09285 -13.6593
rtoes -11.2712
lfemur -13.9264 3.98866 -13.5021
ltibia 34.4944
lfoot -9.13308 0.129787
ltoes -22.6198
190
root 4.5109 17.7783 -9.63296 6.5399 -11.3076 0.703585
lowerback 7.16576 -0.380769 0.723969
upperback 0.0813099 -0.35331 2.40672
thorax -3.92584 -0.168474 2.12213
lowerneck -16.5356 -7.05652 -5.04074
upperneck 42.311 -15.8453 12.2072
head 22.2419 -5.47599 3.59415
rclavicle -1.25234e-014 3.73715e-014
rhumerus -47.4462 13.8695 -79.0137
rradius 84.9539
rwrist 28.1252
rhand -34.8859 39.3279
rfingers 7.12502
rthumb -8.03467 9.50064
lclavicle -1.25234e-014 3.73715e-014
lhumerus -34.8538 -11.6035 93.2698
lradius 49.6455
lwrist 30.7915
lhand -18.4743 57.9367
lfingers 7.12502
lthumb -172.187 267.772
rfemur -12.658 3.46922 22.4434
rtibia 6.85021
rfoot 0.301729 -13.9082
rtoes -11.7449
lfemur -14.3784 3.68837 -13.6599
ltibia 33.7273
lfoot -9.67701 -0.00479039
ltoes -22.6861
